<svg version="1.1"
	 xmlns="http://www.w3.org/2000/svg" xmlns:xlink="http://www.w3.org/1999/xlink" xmlns:a="http://ns.adobe.com/AdobeSVGViewerExtensions/3.0/"
	 x="0px" y="0px" width="35.7px" height="35.7px" viewBox="0 0 35.7 35.7" enable-background="new 0 0 35.7 35.7"
	 xml:space="preserve">
<defs>
</defs>
<circle fill="#ffffff" stroke="#ffffff" stroke-miterlimit="10" cx="17.9" cy="17.9" r="17.4"/>
<g>
	<path d="M14.2,20.9c0.4-0.8,1.2-1.6,2.4-2.3l1.8-1c0.8-0.5,1.4-0.9,1.7-1.2c0.5-0.5,0.8-1.1,0.8-1.8c0-0.8-0.2-1.4-0.7-1.8
		S19,12,18.2,12c-1.1,0-1.9,0.4-2.4,1.3c-0.2,0.5-0.4,1.1-0.4,1.9h-1.7c0-1.2,0.2-2.1,0.6-2.8c0.7-1.3,2-1.9,3.8-1.9
		c1.5,0,2.6,0.4,3.3,1.2c0.7,0.8,1.1,1.7,1.1,2.7c0,1.1-0.4,2-1.1,2.7c-0.4,0.4-1.2,1-2.3,1.6l-1.3,0.7c-0.6,0.3-1.1,0.7-1.4,1
		c-0.6,0.5-1,1.1-1.2,1.8h7.3v1.6h-9.1C13.5,22.7,13.7,21.7,14.2,20.9z"/>
</g>
</svg>
