<svg version="1.1"
	 xmlns="http://www.w3.org/2000/svg" xmlns:xlink="http://www.w3.org/1999/xlink" xmlns:a="http://ns.adobe.com/AdobeSVGViewerExtensions/3.0/"
	 x="0px" y="0px" width="35.7px" height="35.7px" viewBox="0 0 35.7 35.7" enable-background="new 0 0 35.7 35.7"
	 xml:space="preserve">
<defs>
</defs>
<circle fill="#ffffff" stroke="#ffffff" stroke-miterlimit="10" cx="17.9" cy="17.9" r="17.4"/>
<g>
	<path d="M14.4,23.9c-0.7-0.9-1.1-1.9-1.1-3.1h1.7c0.1,0.9,0.2,1.5,0.5,1.9c0.4,0.7,1.2,1,2.3,1c0.9,0,1.6-0.2,2.1-0.7
		c0.5-0.5,0.8-1.1,0.8-1.8c0-0.9-0.3-1.6-0.8-1.9s-1.3-0.5-2.3-0.5c-0.1,0-0.2,0-0.3,0c-0.1,0-0.2,0-0.3,0v-1.5c0.2,0,0.3,0,0.4,0
		c0.1,0,0.2,0,0.4,0c0.6,0,1.1-0.1,1.5-0.3c0.7-0.3,1.1-1,1.1-1.9c0-0.7-0.2-1.2-0.7-1.5c-0.5-0.4-1-0.5-1.6-0.5
		c-1.1,0-1.9,0.4-2.3,1.1c-0.2,0.4-0.4,1-0.4,1.7h-1.7c0-1,0.2-1.8,0.6-2.5c0.7-1.2,1.9-1.9,3.6-1.9c1.4,0,2.4,0.3,3.1,0.9
		c0.7,0.6,1.1,1.5,1.1,2.6c0,0.8-0.2,1.5-0.7,2c-0.3,0.3-0.6,0.6-1.1,0.7c0.7,0.2,1.2,0.6,1.6,1.1c0.4,0.5,0.6,1.2,0.6,2
		c0,1.3-0.4,2.3-1.3,3.1c-0.8,0.8-2,1.2-3.6,1.2C16.2,25.2,15.1,24.8,14.4,23.9z"/>
</g>
</svg>
