<?xml version="1.0" encoding="utf-8"?>
<!-- Generator: Adobe Illustrator 18.0.0, SVG Export Plug-In . SVG Version: 6.00 Build 0)  -->
<!DOCTYPE svg PUBLIC "-//W3C//DTD SVG 1.1//EN" "http://www.w3.org/Graphics/SVG/1.1/DTD/svg11.dtd">
<svg version="1.1" id="Layer_1" xmlns="http://www.w3.org/2000/svg" xmlns:xlink="http://www.w3.org/1999/xlink" x="0px" y="0px"
	 viewBox="0 0 700 700" enable-background="new 0 0 700 700" xml:space="preserve">
<g>
	<path fill="#111111" d="M128.9,261.7c-0.7,6.7-0.7,13.4,0,22.1c0.7,8.1,1.3,16.8,2,25.5c0.7,8.7,2,16.8,2.7,25.5
		c0.7,8.1,1.3,15.4,1.3,22.1c0,6.7-0.7,11.4-2.7,15.4c-1.3,4-4,6-8.1,6c-2,0-3.4-1.3-4-3.4c-0.7-2-1.3-5.4-2-8.1
		c-0.7-2.7-0.7-6.7-0.7-10.1c0-3.4,0-6.7,0-9.4c0-2,0-4.7,0-6.7c0-2.7,0-4.7,0-7.4l0,0c-14.8,0.7-29.5,2-44.3,2
		c-16.1,0-30.9,0-46.3,0.7v6c0,2.7-0.7,6-0.7,10.1c-0.7,4-1.3,8.1-2,12.1c-0.7,4-2,7.4-2.7,10.1c-1.3,2.7-2.7,4-4,4
		c-0.7,0-1.3-1.3-2.7-3.4c-0.7-2.7-1.3-5.4-2-9.4s-0.7-8.1-1.3-13.4c-0.7-5.4-0.7-10.1-0.7-15.4c-1.3,0-2-9.4,0-9.4
		c-0.7-8.7-0.7-16.8,0-25.5c0-8.7,0-16.8,0-25.5c0-4.7,0-8.7,0-12.1c0-4,0.7-6.7,0.7-9.4c0.7-2.7,0.7-4.7,2-6.7
		c0.7-1.3,2-2.7,2.7-2.7c2,0,3.4,0.7,5.4,2c1.3,0.7,2.7,2.7,4,4c0.7,2,1.3,4,2,6.7c0.7,2,0.7,4.7,0.7,6.7v0.7
		c-0.7,11.4-0.7,20.1-0.7,27.5c0,6.7-0.7,12.8-0.7,16.8c0,4,0,7.4,0,10.1c0,2.7,0,4.7,0,6.7c6-0.7,12.8-1.3,20.8-2.7
		s16.1-2,24.2-3.4c8.1-0.7,16.1-1.3,24.2-2s14.8,0,20.1,0.7c0-3.4,0-6,0-9.4c0-3.4,0-6,0-9.4c0-4,0-9.4,0-15.4
		c0-6,0.7-12.1,0.7-18.1c0.7-6,1.3-10.7,2.7-14.8c1.3-4,2.7-6,4.7-6c1.3,0,2.7,0.7,2.7,2c0.7,1.3,1.3,3.4,1.3,4.7c0,2,0,3.4,0,5.4
		C128.9,259.7,128.9,261.1,128.9,261.7z"/>
	<path fill="#111111" d="M171.1,329.5c-1.3,1.3-2.7,2.7-4,3.4c-1.3,0.7-3.4,2-5.4,2c-2,0.7-4,1.3-6,1.3s-4,0.7-5.4,0.7
		c-0.7,2.7-0.7,5.4-0.7,8.1c0,2.7,0,5.4,0.7,7.4s0.7,4,1.3,5.4c0.7,1.3,2,2.7,3.4,2.7c2,0.7,3.4,0,6-0.7c2-1.3,4-2.7,6-4.7
		c2-2,4-4.7,5.4-7.4c2-2.7,3.4-5.4,4.7-8.1c1.3-2.7,2.7-4.7,3.4-6.7s1.3-3.4,2-4.7c0.7-1.3,1.3-2,2-2.7c0.7-0.7,2-0.7,2.7-0.7
		s1.3,0.7,2,1.3s0.7,2,0.7,2.7s-0.7,2.7-1.3,4.7c-0.7,2.7-1.3,5.4-2.7,8.1c-1.3,2.7-2.7,6-4.7,9.4c-2,3.4-4,6-6.7,8.7
		c-2.7,2.7-5.4,4.7-8.7,6.7c-3.4,2-7.4,2.7-11.4,2.7c-4.7,0-8.7-2-11.4-5.4c-2.7-3.4-4.7-7.4-5.4-12.8c-0.7-5.4-1.3-10.7-0.7-16.8
		c0.7-6,2-11.4,3.4-16.8c2-5.4,4-9.4,6.7-12.8c2.7-3.4,6-2.7,9.4-2.7c3.4,0,6,1.3,8.7,3.4c2.7,2,4.7,4.7,6,8.1c1.3,2.7,2,6,2.7,9.4
		C173.2,325.5,172.5,328.2,171.1,329.5z M158.4,311.4c-0.7,0.7-2,2-3.4,5.4s-2,6.7-3.4,11.4c1.3,0,2.7,0,4.7-0.7
		c1.3-0.7,2.7-1.3,3.4-2c0.7-0.7,0.7-2,1.3-3.4c0-1.3,0-3.4,0-4.7s-0.7-2.7-1.3-4C159.7,311.4,159.1,311.4,158.4,311.4z"/>
	<path fill="#111111" d="M185.9,279.9c0-3.4,0.7-5.4,2.7-6.7c2-1.3,4-2,6-2c2,0,4,0.7,5.4,2c1.3,2,2,3.4,2,6
		c-0.7,1.3-0.7,4.7-1.3,9.4c-0.7,4.7-1.3,10.1-2,16.8c-0.7,6-1.3,12.8-1.3,19.5c-0.7,6.7-0.7,12.8-0.7,18.8c0,5.4,0,10.1,0.7,14.1
		c0.7,3.4,1.3,5.4,2.7,5.4c0.7,0,2-1.3,3.4-4.7c1.3-2.7,2.7-6.7,4-10.1c1.3-4,2.7-7.4,4-11.4c1.3-4,2-6,2.7-7.4c0-1.3,0.7-2,2-2.7
		c0.7-0.7,2-0.7,2.7,0c0.7,0,1.3,0.7,2,1.3c0.7,0.7,0.7,2,0,2.7c-0.7,2.7-2,6.7-3.4,11.4c-1.3,4.7-3.4,10.1-5.4,14.8
		c-2,4.7-4.7,8.7-7.4,12.8c-2.7,3.4-6,5.4-10.1,5.4c-3.4,0-6.7-2-8.1-6c-2-4-3.4-8.7-4-14.8s-0.7-12.8-0.7-20.1
		c0-7.4,0.7-14.8,1.3-21.5c0.7-6.7,1.3-13.4,1.3-19.5C185.9,287.2,185.9,283.2,185.9,279.9z"/>
	<path fill="#111111" d="M214.8,306c0-2.7,0.7-4.7,2.7-6c2-1.3,3.4-2.7,6-3.4c2-0.7,4-0.7,5.4,0s2,1.3,2,3.4c0,1.3-0.7,3.4-0.7,6
		s-0.7,5.4-0.7,8.1c1.3-1.3,3.4-2.7,5.4-3.4c2-1.3,4.7-1.3,6.7-1.3c4,0,7.4,2,10.1,4.7c2.7,2.7,4,6,4.7,10.1c0.7,4,1.3,8.1,0.7,12.8
		c-0.7,4.7-2,8.7-3.4,12.8c-2,4-4,6.7-6.7,9.4c-2.7,2.7-6,3.4-9.4,3.4c-2.7,0-4.7-0.7-7.4-2.7c-0.7,0-0.7-0.7-1.3-0.7
		c-0.7,0-0.7-0.7-1.3-1.3c0,5.4-0.7,10.1-0.7,14.8c0,4.7,0,8.1,0,10.7c0,1.3-0.7,2.7-2.7,3.4s-3.4,1.3-4.7,1.3c-2,0-3.4,0-4.7-1.3
		c-1.3-0.7-2-2-2-3.4c0-2.7,0.7-6,0.7-10.7c0-4.7,0.7-9.4,0.7-14.8c0-5.4,0.7-10.7,0.7-16.1c0-5.4,0-10.7,0-15.4s0-8.7,0-12.1
		C214.1,310.1,214.8,307.4,214.8,306z M230.9,323.5c-1.3,2.7-2,6-2.7,9.4c-0.7,3.4-0.7,6,0,9.4c0,2.7,0.7,5.4,2,7.4s2.7,3.4,4,3.4
		c1.3,0,2.7-0.7,4-2c1.3-1.3,2-4,2.7-6c0.7-2.7,1.3-5.4,2-8.1c0.7-3.4,0.7-6,0-8.7c0-2.7-0.7-4.7-1.3-6.7c-0.7-2-2-2.7-3.4-2.7
		c-1.3,0-2.7,0.7-4,1.3C232.9,320.1,231.5,321.5,230.9,323.5z"/>
	<path fill="#111111" d="M295.3,329.5c-1.3,1.3-2.7,2.7-4,3.4c-1.3,0.7-3.4,2-5.4,2c-2,0.7-4,1.3-6,1.3c-2,0-4,0.7-5.4,0.7
		c-0.7,2.7-0.7,5.4-0.7,8.1c0,2.7,0,5.4,0.7,7.4s0.7,4,1.3,5.4c0.7,1.3,2,2.7,3.4,2.7c2,0.7,3.4,0,6-0.7c2-1.3,4-2.7,6-4.7
		c2-2,4-4.7,5.4-7.4c2-2.7,3.4-5.4,4.7-8.1c1.3-2.7,2.7-4.7,3.4-6.7c0.7-2,1.3-3.4,2-4.7c0.7-1.3,1.3-2,2-2.7c0.7-0.7,2-0.7,2.7-0.7
		c0.7,0,1.3,0.7,2,1.3c0.7,0.7,0.7,2,0.7,2.7s-0.7,2.7-1.3,4.7c-0.7,2.7-1.3,5.4-2.7,8.1s-2.7,6-4.7,9.4c-2,3.4-4,6-6.7,8.7
		c-2.7,2.7-5.4,4.7-8.7,6.7c-3.4,2-7.4,2.7-11.4,2.7c-4.7,0-8.7-2-11.4-5.4s-4.7-7.4-5.4-12.8c-0.7-5.4-1.3-10.7-0.7-16.8
		c0.7-6,2-11.4,3.4-16.8c2-5.4,4-9.4,6.7-12.8s5.4-2.7,9.4-2.7c3.4,0,6,1.3,8.7,3.4s4.7,4.7,6,8.1c1.3,2.7,2,6,2.7,9.4
		C297.3,325.5,296.6,328.2,295.3,329.5z M282.6,311.4c-0.7,0.7-2,2-3.4,5.4s-2,6.7-3.4,11.4c1.3,0,2.7,0,4.7-0.7
		c1.3-0.7,2.7-1.3,3.4-2c0.7-0.7,0.7-2,1.3-3.4c0-1.3,0-3.4,0-4.7s-0.7-2.7-1.3-4C283.9,311.4,283.2,311.4,282.6,311.4z"/>
	<path fill="#111111" d="M312.8,332.2c0,1.3-0.7,2-2,2c-0.7,0.7-2,0.7-2.7,0.7c-0.7,0-2-0.7-2-1.3c-0.7-0.7-0.7-2,0-2.7l1.3-3.4
		c-1.3-1.3-2-2.7-2-4c0-1.3,0-3.4,0.7-4.7c0.7-1.3,1.3-2.7,2.7-3.4c1.3-1.3,2.7-1.3,4.7-1.3c2.7,0,4.7,1.3,4.7,3.4s0,4.7-1.3,7.4
		c0.7,0.7,2,0.7,4,0c2,0,3.4-0.7,5.4-0.7c1.3,0,2.7,0,4,0.7c1.3,0.7,1.3,2,0.7,4.7s-1.3,5.4-2,8.7c-0.7,3.4-1.3,6.7-1.3,9.4
		c0,3.4,0,5.4,0,8.1c0,2,1.3,3.4,2,3.4s2-1.3,3.4-3.4c1.3-2.7,2.7-5.4,4-8.1c1.3-3.4,2.7-6,3.4-9.4c1.3-3.4,2-5.4,2-7.4
		c0-1.3,0.7-2,2-2.7c0.7-0.7,2-0.7,2.7-0.7s2,0.7,2.7,1.3s0.7,2,0.7,3.4c0,0.7-0.7,2-1.3,4.7c-0.7,2-1.3,4.7-2,7.4
		c-0.7,2.7-2,6-3.4,8.7c-1.3,3.4-2.7,6-4.7,8.7c-2,2.7-4,4.7-6,6s-4.7,2-8.1,2c-3.4,0-5.4-1.3-7.4-4.7c-1.3-2.7-2.7-6-2.7-10.1
		c-0.7-4,0-8.1,0-12.1c0.7-4,1.3-8.1,2.7-11.4c-0.7,0-1.3,0-2,0c-0.7,0-1.3,0-2,0C313.4,330.9,312.8,331.5,312.8,332.2z"/>
	<path fill="#111111" d="M457,308.1c2,0,4.7,1.3,6.7,3.4c2,2,3.4,4,3.4,6s-1.3,3.4-4.7,4l-39.6,2.7c0,2,0,4,0,8.1
		c0,3.4,0,7.4,0,11.4c0,4,0,8.1,0,12.8c0,4,0,8.1-0.7,11.4s-0.7,6-2,8.7s-2,3.4-3.4,3.4c-2,0-4-0.7-5.4-2s-2.7-2.7-4-4.7
		c-0.7-2-1.3-3.4-2-5.4c-0.7-2-0.7-3.4-0.7-4c0-6.7,0-12.8,0-18.8c0-6,0.7-12.8,0.7-19.5c0,0,0-3.4,0.7-8.7c0-8.7,0-17.4,0-26.2
		s1.3-18.1,2.7-26.8c-10.7,0.7-18.8,0.7-24.8,1.3c-6,0-11.4,0.7-14.8,0.7c-3.4,0-6.7,0-8.7,0c-2,0-4,0-6,0c-3.4,0-6.7-0.7-8.7-1.3
		c-2-1.3-3.4-2.7-3.4-4c0-2,1.3-4,3.4-4.7c2-1.3,4.7-2,8.1-2c3.4-0.7,6.7-0.7,10.1-0.7c3.4,0,6.7,0,9.4-0.7
		c10.7-1.3,20.1-2.7,29.5-4s19.5-2.7,28.9-4c10.1-1.3,19.5-2,29.5-2.7c10.1-0.7,19.5-0.7,29.5,0l0,0c1.3,0,3.4,0.7,5.4,1.3
		c2,0.7,4,1.3,6,2.7c2,1.3,3.4,2,4.7,3.4c1.3,1.3,2,3.4,2,4.7c0,2-1.3,3.4-4.7,4c-2.7,0.7-8.1,1.3-15.4,2c-5.4,1.3-14.8,2-26.2,2
		c-11.4,0-26.2,0.7-43,1.3c0.7,2.7,0.7,6.7,1.3,10.7c0.7,4,0.7,8.1,1.3,12.1c0.7,4,0.7,8.7,0.7,12.8c0,4.7,0,8.7,0.7,12.8
		c5.4-1.3,11.4-2,16.8-2.7C445.6,307.4,451,307.4,457,308.1z"/>
	<path fill="#111111" d="M495.3,294.6c0,1.3,0,2.7-0.7,4c-0.7,1.3-1.3,2.7-2.7,3.4c-1.3,0.7-2.7,2-4,2.7s-3.4,1.3-5.4,1.3
		c-3.4,0.7-6.7,0-10.1-1.3s-5.4-3.4-5.4-6c-0.7-2.7,0.7-5.4,2.7-7.4c2.7-2,5.4-3.4,9.4-4c4-0.7,8.1,0,10.7,1.3
		C493.3,289.9,495.3,291.9,495.3,294.6z M471.8,322.8c0-3.4,0.7-5.4,2.7-6.7c2-1.3,3.4-2,5.4-1.3c2,0,4,1.3,5.4,2.7
		c1.3,1.3,2,3.4,1.3,5.4c-0.7,2.7-1.3,5.4-1.3,9.4c0,4-0.7,7.4-0.7,10.7s0,6,0,8.7s1.3,3.4,2,3.4c0.7,0,2-1.3,2.7-3.4
		c1.3-2,2-4.7,3.4-7.4c1.3-2.7,2-6,3.4-8.7c0.7-2.7,1.3-5.4,2-6.7c0.7-1.3,1.3-2,2-2.7c0.7-0.7,2-0.7,2.7-0.7c0.7,0,1.3,0.7,2,1.3
		c0.7,0.7,0.7,2,0,3.4c0,0.7-0.7,2-1.3,4.7c-0.7,2-1.3,4.7-2,7.4c-0.7,2.7-2,5.4-3.4,8.7c-1.3,2.7-2.7,5.4-4.7,8.1
		c-2,2-3.4,4-5.4,5.4c-2,1.3-4,1.3-6.7,0.7c-3.4-1.3-6-3.4-8.1-6c-1.3-2.7-2.7-6-2.7-10.1s0-8.1,0-12.8
		C470.5,331.5,471.8,327.5,471.8,322.8z"/>
	<path fill="#111111" d="M499.3,319.5c0.7-2.7,1.3-4.7,3.4-6c2-1.3,4-2,6-2c2,0,4,0,5.4,1.3c1.3,0.7,2,2.7,2,4.7s-0.7,4-1.3,6.7
		c-0.7,2.7-0.7,4.7-1.3,7.4c-0.7,2.7-0.7,4.7-0.7,6.7s0,4,0,5.4c1.3-3.4,2.7-6.7,4-10.1c1.3-3.4,2.7-5.4,4.7-7.4
		c1.3-1.3,2.7-2.7,4.7-3.4c2-0.7,4-1.3,5.4-1.3c1.3,0,3.4,0.7,4,1.3c1.3,0.7,1.3,2,0.7,4c-0.7,1.3-0.7,3.4-1.3,6
		c-0.7,2.7-0.7,5.4-0.7,8.1s0,4.7,0.7,6.7c0,2,0.7,2.7,1.3,2.7s2-0.7,3.4-2c1.3-1.3,2.7-3.4,4-5.4c1.3-2,2.7-4,4-6.7
		c1.3-2.7,2-4.7,2.7-6c0-1.3,0.7-2,2-2.7c1.3-0.7,2-0.7,2.7-0.7s1.3,0.7,2,1.3c0.7,0.7,0.7,2,0.7,2.7c-0.7,2-1.3,4.7-2.7,8.1
		s-3.4,6.7-5.4,9.4c-2,2.7-4,6-6.7,8.1c-2.7,2.7-4.7,3.4-7.4,3.4c-4,0-6.7-1.3-8.7-3.4c-2-2-2.7-4.7-3.4-7.4
		c-0.7-2.7-0.7-5.4-0.7-8.1s0-4,0-4.7c-0.7,0-1.3,1.3-2,2.7s-1.3,3.4-2,6c-0.7,2-1.3,4.7-2,6.7s-0.7,4.7-1.3,6c0,2-1.3,3.4-2.7,4
		c-1.3,0.7-3.4,1.3-5.4,1.3c-2,0-3.4-0.7-4.7-1.3c-1.3-0.7-2-2.7-2-4.7c0-2,0-5.4,0-8.1s0-6.7-0.7-10.1c0-3.4,0-7.4,0-10.7
		C498.7,325.5,498.7,322.1,499.3,319.5z"/>
	<path fill="#111111" d="M583.9,277.2c0-3.4,0.7-5.4,2.7-6.7s4-2,6-2s4,0.7,5.4,2s2,3.4,2,5.4c0,1.3-0.7,4.7-1.3,9.4
		c-0.7,4.7-1.3,10.1-2,16.1s-1.3,12.1-1.3,18.8c-0.7,6.7-0.7,12.1-0.7,17.4s0,10.1,0.7,13.4s1.3,5.4,2.7,5.4s2.7-1.3,4-3.4
		c1.3-2,2.7-4.7,4-8.1c1.3-3.4,2-6,3.4-8.7c0.7-2.7,1.3-5.4,2-6.7c0.7-1.3,1.3-2,2-2.7s2-0.7,2.7-0.7s1.3,0.7,2,1.3s0.7,2,0.7,3.4
		c0,1.3-0.7,4-2,8.1c-0.7,4-2.7,8.1-4,12.1c-1.3,4-5.4,8.1-8.7,11.4c-3.4,3.4-6.7,4.7-10.7,4.7c-3.4,0-5.4-1.3-7.4-4
		c-2-2.7-3.4-6-4-10.1c-1.3,2.7-2.7,4.7-4.7,6.7s-4,3.4-6.7,4.7s-5.4,1.3-8.1,0.7c-4-0.7-7.4-3.4-9.4-6.7c-2-3.4-4-7.4-4.7-11.4
		c-0.7-4.7-0.7-8.7,0-14.1c0.7-4.7,2-8.7,4-12.8c2-4,4.7-6.7,8.7-8.7c3.4-2,8.1-2.7,12.8-2c2.7,0.7,5.4,2,7.4,4
		c0.7-8.1,1.3-14.8,2-21.5C583.9,285.9,583.9,280.5,583.9,277.2z M579.2,327.5c0-2-0.7-4-1.3-6c-0.7-2-2-2.7-3.4-3.4c-2-0.7-4,0-6,2
		c-2,2-3.4,4-4,6.7c-1.3,2.7-2,6-2.7,9.4c-0.7,3.4-0.7,6.7-0.7,9.4c0,3.4,0.7,5.4,2,8.1c0.7,2,2,3.4,4,3.4s3.4-0.7,4.7-2.7
		c1.3-2,2.7-4,4-7.4c1.3-2.7,2-6,2.7-10.1C579.2,332.9,579.9,330.9,579.2,327.5z"/>
	<path fill="#111111" d="M644.3,329.5c-1.3,1.3-2.7,2.7-4,3.4s-3.4,2-5.4,2c-2,0.7-4,1.3-6,1.3s-4,0.7-5.4,0.7
		c-0.7,2.7-0.7,5.4-0.7,8.1c0,2.7,0,5.4,0.7,7.4c0,2,0.7,4,1.3,5.4c0.7,1.3,2,2.7,3.4,2.7c2,0.7,3.4,0,6-0.7s4-2.7,6-4.7
		s4-4.7,5.4-7.4c2-2.7,3.4-5.4,4.7-8.1c1.3-2.7,2.7-4.7,3.4-6.7s1.3-3.4,2-4.7c0.7-1.3,1.3-2,2-2.7s2-0.7,2.7-0.7s1.3,0.7,2,1.3
		c0.7,0.7,0.7,2,0.7,2.7s-0.7,2.7-1.3,4.7c-0.7,2.7-1.3,5.4-2.7,8.1s-2.7,6-4.7,9.4c-2,3.4-4,6-6.7,8.7c-2.7,2.7-5.4,4.7-8.7,6.7
		c-3.4,2-7.4,2.7-11.4,2.7c-4.7,0-8.7-2-11.4-5.4c-2.7-3.4-4.7-7.4-5.4-12.8c-0.7-5.4-1.3-10.7-0.7-16.8c0.7-6,2-11.4,3.4-16.8
		c2-5.4,4-9.4,6.7-12.8s5.4-2.7,9.4-2.7c3.4,0,6,1.3,8.7,3.4s4.7,4.7,6,8.1c1.3,2.7,2,6,2.7,9.4
		C646.3,325.5,645.6,328.2,644.3,329.5z M631.5,311.4c-0.7,0.7-2,2-3.4,5.4c-1.3,3.4-2,6.7-3.4,11.4c1.3,0,2.7,0,4.7-0.7
		c1.3-0.7,2.7-1.3,3.4-2s0.7-2,1.3-3.4c0.7-1.3,0-3.4,0-4.7s-0.7-2.7-1.3-4C632.9,311.4,632.2,311.4,631.5,311.4z"/>
	<path fill="#111111" d="M661.7,332.2c0,1.3-0.7,2-2,2c-0.7,0.7-2,0.7-2.7,0.7c-0.7,0-2-0.7-2-1.3c-0.7-0.7-0.7-2,0-2.7l1.3-3.4
		c-1.3-1.3-2-2.7-2-4c0-1.3,0-3.4,0.7-4.7c0.7-1.3,1.3-2.7,2.7-3.4c1.3-1.3,2.7-1.3,4.7-1.3c2.7,0,4.7,1.3,4.7,3.4s0,4.7-1.3,7.4
		c0.7,0.7,2,0.7,4,0c2,0,3.4-0.7,5.4-0.7c2,0,2.7,0,4,0.7c1.3,0.7,1.3,2,0.7,4.7s-1.3,5.4-2,8.7c-0.7,3.4-1.3,6.7-1.3,9.4
		c0,3.4,0,5.4,0,8.1c0,2,1.3,3.4,2,3.4c0.7,0,2-1.3,3.4-3.4c1.3-2.7,2.7-5.4,4-8.1c1.3-3.4,2.7-6,3.4-9.4c1.3-3.4,2-5.4,2-7.4
		c0-1.3,0.7-2,2-2.7c0.7-0.7,2-0.7,2.7-0.7c0.7,0,2,0.7,2.7,1.3c0.7,0.7,0.7,2,0.7,3.4c0,0.7-0.7,2-1.3,4.7c-0.7,2.7-1.3,4.7-2,7.4
		c-0.7,2.7-2,6-3.4,8.7c-1.3,3.4-2.7,6-4.7,8.7c-2,2.7-4,4.7-6,6s-4.7,2-8.1,2s-5.4-1.3-7.4-4.7c-1.3-2.7-2.7-6-2.7-10.1
		c-0.7-4,0-8.1,0-12.1c0.7-4,1.3-8.1,2.7-11.4c-0.7,0-1.3,0-2,0s-1.3,0-2,0C662.4,330.9,661.7,331.5,661.7,332.2z"/>
</g>
<g>
	<path fill="#111111" d="M270.5,416.8c11.4,0,18.8,5.4,18.8,20.1s-7.4,20.1-18.8,20.1h-8.7c-1.3,0-2-0.7-2-2v-36.2c0-1.3,0.7-2,2-2
		H270.5z M263.8,453.7h6.7c8.7,0,14.8-4,14.8-16.8s-5.4-16.8-14.8-16.8h-6.7V453.7z"/>
	<path fill="#111111" d="M296.6,445v-26.8c0-1.3,0.7-2,2-2s2,0.7,2,2V445c0,4.7,2,9.4,10.1,9.4c8.1,0,10.1-4.7,10.1-9.4v-26.8
		c0-1.3,0.7-2,2-2s2,0.7,2,2V445c0,6.7-2.7,13.4-14.1,13.4C299.3,458.4,296.6,451.7,296.6,445z"/>
	<path fill="#111111" d="M336.2,457c-1.3,0-2-0.7-2-2v-36.2c0-1.3,0.7-2,2-2h10.1c8.7,0,12.1,4,12.1,10.7c0,4-2.7,7.4-6,8.1
		c4,1.3,8.1,4,8.1,10.1c0,6.7-4.7,11.4-12.1,11.4C348.3,457,336.2,457,336.2,457z M338.3,434.2h8.1c5.4,0,8.1-2.7,8.1-6.7
		s-2.7-6.7-8.1-6.7h-8.1V434.2z M338.3,453.7h10.1c5.4,0,8.1-2.7,8.1-8.1c0-4.7-3.4-8.1-8.1-8.1h-10.1V453.7z"/>
	<path fill="#111111" d="M388.6,453c1.3,0,2,0.7,2,2c0,1.3-0.7,2-2,2h-18.8c-1.3,0-2-0.7-2-2v-36.9c0-1.3,0.7-2,2-2s2,0.7,2,2V453
		H388.6z"/>
	<path fill="#111111" d="M401.3,455.7c0,1.3-0.7,2-2,2c-1.3,0-2-0.7-2-2v-37.6c0-1.3,0.7-2,2-2c1.3,0,2,0.7,2,2V455.7z"/>
	<path fill="#111111" d="M439.6,418.1v37.6c0,1.3-0.7,2-2,2c-0.7,0-1.3,0-2-0.7l-21.5-32.2v30.9c0,1.3-0.7,2-2,2s-2-0.7-2-2v-37.6
		c0-1.3,0.7-2,2-2c0.7,0,1.3,0.7,1.3,0.7l21.5,32.2v-30.9c0-1.3,0.7-2,2-2S439.6,416.8,439.6,418.1z"/>
</g>
<line fill="#111111" stroke="#FFFFFF" stroke-linecap="round" stroke-miterlimit="10" x1="3.4" y1="442.3" x2="211.4" y2="442.3"/>
<line fill="#111111" stroke="#FFFFFF" stroke-linecap="round" stroke-miterlimit="10" x1="479.9" y1="442.3" x2="687.9" y2="442.3"/>
</svg>
