<svg version="1.1"
	 xmlns="http://www.w3.org/2000/svg" xmlns:xlink="http://www.w3.org/1999/xlink" xmlns:a="http://ns.adobe.com/AdobeSVGViewerExtensions/3.0/"
	 x="0px" y="0px" width="35.7px" height="35.7px" viewBox="0 0 35.7 35.7" enable-background="new 0 0 35.7 35.7"
	 xml:space="preserve">
<defs>
</defs>
<circle fill="#ffffff" stroke="#ffffff" stroke-miterlimit="10" cx="17.9" cy="17.9" r="17.4"/>
<g>
	<path d="M15.2,21.5c0.1,1,0.6,1.6,1.3,2c0.4,0.2,0.9,0.3,1.4,0.3c1,0,1.7-0.3,2.2-0.9c0.5-0.6,0.7-1.3,0.7-2.1
		c0-0.9-0.3-1.6-0.8-2.2c-0.6-0.5-1.2-0.8-2-0.8c-0.6,0-1.1,0.1-1.5,0.3s-0.8,0.5-1.1,0.9L14,18.9l1-7.2h6.9v1.6h-5.6l-0.6,3.7
		c0.3-0.2,0.6-0.4,0.9-0.5c0.5-0.2,1.1-0.3,1.7-0.3c1.2,0,2.3,0.4,3.1,1.2c0.8,0.8,1.3,1.8,1.3,3c0,1.3-0.4,2.4-1.2,3.3
		c-0.8,1-2,1.4-3.7,1.4c-1.1,0-2-0.3-2.9-0.9c-0.8-0.6-1.3-1.5-1.4-2.8H15.2z"/>
</g>
</svg>
