<svg version="1.1"
	 xmlns="http://www.w3.org/2000/svg" xmlns:xlink="http://www.w3.org/1999/xlink" xmlns:a="http://ns.adobe.com/AdobeSVGViewerExtensions/3.0/"
	 x="0px" y="0px" width="100px" height="80px" viewBox="0 0 690.1 217.1" enable-background="new 0 0 690.1 217.1"
	 xml:space="preserve">
<defs>
</defs>
<g>
	<path fill="#111111" d="M119.5,20.4c-0.7,6.7-0.7,13.4,0,22.1c0.7,8.1,1.3,16.8,2,25.5s2,16.8,2.7,25.5c0.7,8.1,1.3,15.4,1.3,22.1
		s-0.7,11.4-2.7,15.4c-1.3,4-4,6-8.1,6c-2,0-3.4-1.3-4-3.4c-0.7-2-1.3-5.4-2-8.1s-0.7-6.7-0.7-10.1s0-6.7,0-9.4c0-2,0-4.7,0-6.7
		c0-2.7,0-4.7,0-7.4l0,0c-14.8,0.7-29.5,2-44.3,2c-16.1,0-30.9,0-46.3,0.7v6c0,2.7-0.7,6-0.7,10.1c-0.7,4-1.3,8.1-2,12.1
		s-2,7.4-2.7,10.1c-1.3,2.7-2.7,4-4,4c-0.7,0-1.3-1.3-2.7-3.4c-0.7-2.7-1.3-5.4-2-9.4S2.6,116,2,110.7c-0.7-5.4-0.7-10.1-0.7-15.4
		c-1.3,0-2-9.4,0-9.4c-0.7-8.7-0.7-16.8,0-25.5c0-8.7,0-16.8,0-25.5c0-4.7,0-8.7,0-12.1c0-4,0.7-6.7,0.7-9.4c0.7-2.7,0.7-4.7,2-6.7
		C4.7,5.4,6,4,6.7,4c2,0,3.4,0.7,5.4,2c1.3,0.7,2.7,2.7,4,4c0.7,2,1.3,4,2,6.7c0.7,2,0.7,4.7,0.7,6.7v0.7
		c-0.7,11.4-0.7,20.1-0.7,27.5c0,6.7-0.7,12.8-0.7,16.8s0,7.4,0,10.1s0,4.7,0,6.7c6-0.7,12.8-1.3,20.8-2.7s16.1-2,24.2-3.4
		c8.1-0.7,16.1-1.3,24.2-2s14.8,0,20.1,0.7c0-3.4,0-6,0-9.4s0-6,0-9.4c0-4,0-9.4,0-15.4s0.7-12.1,0.7-18.1c0.7-6,1.3-10.7,2.7-14.8
		c1.3-4,2.7-6,4.7-6c1.3,0,2.7,0.7,2.7,2c0.7,1.3,1.3,3.4,1.3,4.7c0,2,0,3.4,0,5.4C119.5,18.4,119.5,19.8,119.5,20.4z"/>
	<path fill="#111111" d="M161.7,88.2c-1.3,1.3-2.7,2.7-4,3.4c-1.3,0.7-3.4,2-5.4,2c-2,0.7-4,1.3-6,1.3s-4,0.7-5.4,0.7
		c-0.7,2.7-0.7,5.4-0.7,8.1s0,5.4,0.7,7.4s0.7,4,1.3,5.4c0.7,1.3,2,2.7,3.4,2.7c2,0.7,3.4,0,6-0.7c2-1.3,4-2.7,6-4.7s4-4.7,5.4-7.4
		c2-2.7,3.4-5.4,4.7-8.1s2.7-4.7,3.4-6.7s1.3-3.4,2-4.7c0.7-1.3,1.3-2,2-2.7s2-0.7,2.7-0.7s1.3,0.7,2,1.3s0.7,2,0.7,2.7
		s-0.7,2.7-1.3,4.7c-0.7,2.7-1.3,5.4-2.7,8.1c-1.3,2.7-2.7,6-4.7,9.4s-4,6-6.7,8.7s-5.4,4.7-8.7,6.7c-3.4,2-7.4,2.7-11.4,2.7
		c-4.7,0-8.7-2-11.4-5.4s-4.7-7.4-5.4-12.8s-1.3-10.7-0.7-16.8c0.7-6,2-11.4,3.4-16.8c2-5.4,4-9.4,6.7-12.8c2.7-3.4,6-2.7,9.4-2.7
		s6,1.3,8.7,3.4c2.7,2,4.7,4.7,6,8.1c1.3,2.7,2,6,2.7,9.4C163.8,84.2,163.1,86.9,161.7,88.2z M149,70.1c-0.7,0.7-2,2-3.4,5.4
		s-2,6.7-3.4,11.4c1.3,0,2.7,0,4.7-0.7c1.3-0.7,2.7-1.3,3.4-2s0.7-2,1.3-3.4c0-1.3,0-3.4,0-4.7s-0.7-2.7-1.3-4
		C150.3,70.1,149.7,70.1,149,70.1z"/>
	<path fill="#111111" d="M176.5,38.6c0-3.4,0.7-5.4,2.7-6.7c2-1.3,4-2,6-2s4,0.7,5.4,2c1.3,2,2,3.4,2,6c-0.7,1.3-0.7,4.7-1.3,9.4
		c-0.7,4.7-1.3,10.1-2,16.8c-0.7,6-1.3,12.8-1.3,19.5c-0.7,6.7-0.7,12.8-0.7,18.8c0,5.4,0,10.1,0.7,14.1c0.7,3.4,1.3,5.4,2.7,5.4
		c0.7,0,2-1.3,3.4-4.7c1.3-2.7,2.7-6.7,4-10.1c1.3-4,2.7-7.4,4-11.4s2-6,2.7-7.4c0-1.3,0.7-2,2-2.7c0.7-0.7,2-0.7,2.7,0
		c0.7,0,1.3,0.7,2,1.3c0.7,0.7,0.7,2,0,2.7c-0.7,2.7-2,6.7-3.4,11.4c-1.3,4.7-3.4,10.1-5.4,14.8c-2,4.7-4.7,8.7-7.4,12.8
		c-2.7,3.4-6,5.4-10.1,5.4c-3.4,0-6.7-2-8.1-6c-2-4-3.4-8.7-4-14.8s-0.7-12.8-0.7-20.1c0-7.4,0.7-14.8,1.3-21.5
		c0.7-6.7,1.3-13.4,1.3-19.5C176.5,45.9,176.5,41.9,176.5,38.6z"/>
	<path fill="#111111" d="M205.4,64.7c0-2.7,0.7-4.7,2.7-6s3.4-2.7,6-3.4c2-0.7,4-0.7,5.4,0s2,1.3,2,3.4c0,1.3-0.7,3.4-0.7,6
		c0,2.6-0.7,5.4-0.7,8.1c1.3-1.3,3.4-2.7,5.4-3.4c2-1.3,4.7-1.3,6.7-1.3c4,0,7.4,2,10.1,4.7c2.7,2.7,4,6,4.7,10.1
		c0.7,4,1.3,8.1,0.7,12.8c-0.7,4.7-2,8.7-3.4,12.8c-2,4-4,6.7-6.7,9.4c-2.7,2.7-6,3.4-9.4,3.4c-2.7,0-4.7-0.7-7.4-2.7
		c-0.7,0-0.7-0.7-1.3-0.7c-0.7,0-0.7-0.7-1.3-1.3c0,5.4-0.7,10.1-0.7,14.8c0,4.7,0,8.1,0,10.7c0,1.3-0.7,2.7-2.7,3.4
		s-3.4,1.3-4.7,1.3c-2,0-3.4,0-4.7-1.3c-1.3-0.7-2-2-2-3.4c0-2.7,0.7-6,0.7-10.7s0.7-9.4,0.7-14.8s0.7-10.7,0.7-16.1s0-10.7,0-15.4
		s0-8.7,0-12.1C204.7,68.8,205.4,66.1,205.4,64.7z M221.5,82.2c-1.3,2.7-2,6-2.7,9.4s-0.7,6,0,9.4c0,2.7,0.7,5.4,2,7.4
		s2.7,3.4,4,3.4s2.7-0.7,4-2s2-4,2.7-6c0.7-2.7,1.3-5.4,2-8.1c0.7-3.4,0.7-6,0-8.7c0-2.7-0.7-4.7-1.3-6.7c-0.7-2-2-2.7-3.4-2.7
		c-1.3,0-2.7,0.7-4,1.3C223.5,78.8,222.1,80.2,221.5,82.2z"/>
	<path fill="#111111" d="M285.9,88.2c-1.3,1.3-2.7,2.7-4,3.4c-1.3,0.7-3.4,2-5.4,2c-2,0.7-4,1.3-6,1.3s-4,0.7-5.4,0.7
		c-0.7,2.7-0.7,5.4-0.7,8.1s0,5.4,0.7,7.4s0.7,4,1.3,5.4c0.7,1.3,2,2.7,3.4,2.7c2,0.7,3.4,0,6-0.7c2-1.3,4-2.7,6-4.7s4-4.7,5.4-7.4
		c2-2.7,3.4-5.4,4.7-8.1c1.3-2.7,2.7-4.7,3.4-6.7c0.7-2,1.3-3.4,2-4.7c0.7-1.3,1.3-2,2-2.7s2-0.7,2.7-0.7s1.3,0.7,2,1.3
		c0.7,0.7,0.7,2,0.7,2.7s-0.7,2.7-1.3,4.7c-0.7,2.7-1.3,5.4-2.7,8.1s-2.7,6-4.7,9.4s-4,6-6.7,8.7s-5.4,4.7-8.7,6.7
		c-3.4,2-7.4,2.7-11.4,2.7c-4.7,0-8.7-2-11.4-5.4s-4.7-7.4-5.4-12.8c-0.7-5.4-1.3-10.7-0.7-16.8c0.7-6,2-11.4,3.4-16.8
		c2-5.4,4-9.4,6.7-12.8c2.7-3.4,5.4-2.7,9.4-2.7c3.4,0,6,1.3,8.7,3.4c2.7,2.1,4.7,4.7,6,8.1c1.3,2.7,2,6,2.7,9.4
		C287.9,84.2,287.2,86.9,285.9,88.2z M273.2,70.1c-0.7,0.7-2,2-3.4,5.4s-2,6.7-3.4,11.4c1.3,0,2.7,0,4.7-0.7c1.3-0.7,2.7-1.3,3.4-2
		c0.7-0.7,0.7-2,1.3-3.4c0-1.3,0-3.4,0-4.7s-0.7-2.7-1.3-4C274.5,70.1,273.8,70.1,273.2,70.1z"/>
	<path fill="#111111" d="M303.4,90.9c0,1.3-0.7,2-2,2c-0.7,0.7-2,0.7-2.7,0.7s-2-0.7-2-1.3c-0.7-0.7-0.7-2,0-2.7l1.3-3.4
		c-1.3-1.3-2-2.7-2-4s0-3.4,0.7-4.7c0.7-1.3,1.3-2.7,2.7-3.4c1.3-1.3,2.7-1.3,4.7-1.3c2.7,0,4.7,1.3,4.7,3.4s0,4.7-1.3,7.4
		c0.7,0.7,2,0.7,4,0c2,0,3.4-0.7,5.4-0.7c1.3,0,2.7,0,4,0.7s1.3,2,0.7,4.7s-1.3,5.4-2,8.7c-0.7,3.4-1.3,6.7-1.3,9.4
		c0,3.4,0,5.4,0,8.1c0,2,1.3,3.4,2,3.4s2-1.3,3.4-3.4c1.3-2.7,2.7-5.4,4-8.1c1.3-3.4,2.7-6,3.4-9.4c1.3-3.4,2-5.4,2-7.4
		c0-1.3,0.7-2,2-2.7c0.7-0.7,2-0.7,2.7-0.7s2,0.7,2.7,1.3s0.7,2,0.7,3.4c0,0.7-0.7,2-1.3,4.7c-0.7,2-1.3,4.7-2,7.4
		c-0.7,2.7-2,6-3.4,8.7c-1.3,3.4-2.7,6-4.7,8.7s-4,4.7-6,6s-4.7,2-8.1,2s-5.4-1.3-7.4-4.7c-1.3-2.7-2.7-6-2.7-10.1
		c-0.7-4,0-8.1,0-12.1c0.7-4,1.3-8.1,2.7-11.4c-0.7,0-1.3,0-2,0s-1.3,0-2,0C304,89.6,303.4,90.2,303.4,90.9z"/>
	<path fill="#111111" d="M447.6,66.8c2,0,4.7,1.3,6.7,3.4c2,2,3.4,4,3.4,6s-1.3,3.4-4.7,4l-39.6,2.7c0,2,0,4,0,8.1
		c0,3.4,0,7.4,0,11.4s0,8.1,0,12.8c0,4,0,8.1-0.7,11.4s-0.7,6-2,8.7s-2,3.4-3.4,3.4c-2,0-4-0.7-5.4-2s-2.7-2.7-4-4.7
		c-0.7-2-1.3-3.4-2-5.4s-0.7-3.4-0.7-4c0-6.7,0-12.8,0-18.8s0.7-12.8,0.7-19.5c0,0,0-3.4,0.7-8.7c0-8.7,0-17.4,0-26.2
		s1.3-18.1,2.7-26.8c-10.7,0.7-18.8,0.7-24.8,1.3c-6,0-11.4,0.7-14.8,0.7s-6.7,0-8.7,0s-4,0-6,0c-3.4,0-6.7-0.7-8.7-1.3
		c-2-1.3-3.4-2.7-3.4-4c0-2,1.3-4,3.4-4.7c2-1.3,4.7-2,8.1-2c3.4-0.7,6.7-0.7,10.1-0.7s6.7,0,9.4-0.7c10.7-1.3,20.1-2.7,29.5-4
		s19.5-2.7,28.9-4c10.1-1.3,19.5-2,29.5-2.7c10.1-0.7,19.5-0.7,29.5,0l0,0c1.3,0,3.4,0.7,5.4,1.3c2,0.7,4,1.3,6,2.7
		c2,1.3,3.4,2,4.7,3.4c1.3,1.3,2,3.4,2,4.7c0,2-1.3,3.4-4.7,4c-2.7,0.7-8.1,1.3-15.4,2c-5.4,1.3-14.8,2-26.2,2
		c-11.4,0-26.2,0.7-43,1.3c0.7,2.7,0.7,6.7,1.3,10.7c0.7,4,0.7,8.1,1.3,12.1c0.7,4,0.7,8.7,0.7,12.8c0,4.7,0,8.7,0.7,12.8
		c5.4-1.3,11.4-2,16.8-2.7C436.2,66.1,441.6,66.1,447.6,66.8z"/>
	<path fill="#111111" d="M485.9,53.3c0,1.3,0,2.7-0.7,4s-1.3,2.7-2.7,3.4c-1.3,0.7-2.7,2-4,2.7c-1.3,0.7-3.4,1.3-5.4,1.3
		c-3.4,0.7-6.7,0-10.1-1.3c-3.4-1.3-5.4-3.4-5.4-6c-0.7-2.7,0.7-5.4,2.7-7.4c2.7-2,5.4-3.4,9.4-4c4-0.7,8.1,0,10.7,1.3
		C483.9,48.6,485.9,50.6,485.9,53.3z M462.4,81.5c0-3.4,0.7-5.4,2.7-6.7c2-1.3,3.4-2,5.4-1.3c2,0,4,1.3,5.4,2.7
		c1.3,1.3,2,3.4,1.3,5.4c-0.7,2.7-1.3,5.4-1.3,9.4s-0.7,7.4-0.7,10.7s0,6,0,8.7s1.3,3.4,2,3.4s2-1.3,2.7-3.4c1.3-2,2-4.7,3.4-7.4
		c1.3-2.7,2-6,3.4-8.7c0.7-2.7,1.3-5.4,2-6.7c0.7-1.3,1.3-2,2-2.7s2-0.7,2.7-0.7s1.3,0.7,2,1.3c0.7,0.7,0.7,2,0,3.4
		c0,0.7-0.7,2-1.3,4.7c-0.7,2-1.3,4.7-2,7.4c-0.7,2.7-2,5.4-3.4,8.7c-1.3,2.7-2.7,5.4-4.7,8.1c-2,2-3.4,4-5.4,5.4
		c-2,1.3-4,1.3-6.7,0.7c-3.4-1.3-6-3.4-8.1-6c-1.3-2.7-2.7-6-2.7-10.1s0-8.1,0-12.8C461.1,90.2,462.4,86.2,462.4,81.5z"/>
	<path fill="#111111" d="M489.9,78.2c0.7-2.7,1.3-4.7,3.4-6c2-1.3,4-2,6-2s4,0,5.4,1.3c1.3,0.7,2,2.7,2,4.7s-0.7,4-1.3,6.7
		c-0.7,2.7-0.7,4.7-1.3,7.4c-0.7,2.7-0.7,4.7-0.7,6.7s0,4,0,5.4c1.3-3.4,2.7-6.7,4-10.1s2.7-5.4,4.7-7.4c1.3-1.3,2.7-2.7,4.7-3.4
		c2-0.7,4-1.3,5.4-1.3c1.3,0,3.4,0.7,4,1.3c1.3,0.7,1.3,2,0.7,4c-0.7,1.3-0.7,3.4-1.3,6c-0.7,2.7-0.7,5.4-0.7,8.1s0,4.7,0.7,6.7
		c0,2,0.7,2.7,1.3,2.7s2-0.7,3.4-2c1.3-1.3,2.7-3.4,4-5.4s2.7-4,4-6.7s2-4.7,2.7-6c0-1.3,0.7-2,2-2.7s2-0.7,2.7-0.7s1.3,0.7,2,1.3
		c0.7,0.7,0.7,2,0.7,2.7c-0.7,2-1.3,4.7-2.7,8.1s-3.4,6.7-5.4,9.4c-2,2.7-4,6-6.7,8.1c-2.7,2.7-4.7,3.4-7.4,3.4
		c-4,0-6.7-1.3-8.7-3.4c-2-2-2.7-4.7-3.4-7.4c-0.7-2.7-0.7-5.4-0.7-8.1s0-4,0-4.7c-0.7,0-1.3,1.3-2,2.7c-0.7,1.4-1.3,3.4-2,6
		c-0.7,2-1.3,4.7-2,6.7s-0.7,4.7-1.3,6c0,2-1.3,3.4-2.7,4c-1.3,0.7-3.4,1.3-5.4,1.3s-3.4-0.7-4.7-1.3c-1.3-0.7-2-2.7-2-4.7
		s0-5.4,0-8.1s0-6.7-0.7-10.1c0-3.4,0-7.4,0-10.7C489.3,84.2,489.3,80.8,489.9,78.2z"/>
	<path fill="#111111" d="M574.5,35.9c0-3.4,0.7-5.4,2.7-6.7s4-2,6-2s4,0.7,5.4,2s2,3.4,2,5.4c0,1.3-0.7,4.7-1.3,9.4
		c-0.7,4.7-1.3,10.1-2,16.1S586,72.2,586,78.9c-0.7,6.7-0.7,12.1-0.7,17.4s0,10.1,0.7,13.4s1.3,5.4,2.7,5.4s2.7-1.3,4-3.4
		c1.3-2,2.7-4.7,4-8.1s2-6,3.4-8.7c0.7-2.7,1.3-5.4,2-6.7c0.7-1.3,1.3-2,2-2.7s2-0.7,2.7-0.7s1.3,0.7,2,1.3s0.7,2,0.7,3.4
		c0,1.3-0.7,4-2,8.1c-0.7,4-2.7,8.1-4,12.1s-5.4,8.1-8.7,11.4c-3.4,3.4-6.7,4.7-10.7,4.7c-3.4,0-5.4-1.3-7.4-4s-3.4-6-4-10.1
		c-1.3,2.7-2.7,4.7-4.7,6.7s-4,3.4-6.7,4.7s-5.4,1.3-8.1,0.7c-4-0.7-7.4-3.4-9.4-6.7c-2-3.4-4-7.4-4.7-11.4c-0.7-4.7-0.7-8.7,0-14.1
		c0.7-4.7,2-8.7,4-12.8c2-4,4.7-6.7,8.7-8.7c3.4-2,8.1-2.7,12.8-2c2.7,0.7,5.4,2,7.4,4c0.7-8.1,1.3-14.8,2-21.5
		C574.5,44.6,574.5,39.2,574.5,35.9z M569.8,86.2c0-2-0.7-4-1.3-6c-0.7-2-2-2.7-3.4-3.4c-2-0.7-4,0-6,2s-3.4,4-4,6.7
		c-1.3,2.7-2,6-2.7,9.4s-0.7,6.7-0.7,9.4c0,3.4,0.7,5.4,2,8.1c0.7,2,2,3.4,4,3.4s3.4-0.7,4.7-2.7s2.7-4,4-7.4c1.3-2.7,2-6,2.7-10.1
		C569.8,91.6,570.5,89.6,569.8,86.2z"/>
	<path fill="#111111" d="M634.9,88.2c-1.3,1.3-2.7,2.7-4,3.4s-3.4,2-5.4,2c-2,0.7-4,1.3-6,1.3s-4,0.7-5.4,0.7
		c-0.7,2.7-0.7,5.4-0.7,8.1s0,5.4,0.7,7.4c0,2,0.7,4,1.3,5.4c0.7,1.3,2,2.7,3.4,2.7c2,0.7,3.4,0,6-0.7s4-2.7,6-4.7s4-4.7,5.4-7.4
		c2-2.7,3.4-5.4,4.7-8.1s2.7-4.7,3.4-6.7s1.3-3.4,2-4.7c0.7-1.3,1.3-2,2-2.7s2-0.7,2.7-0.7s1.3,0.7,2,1.3c0.7,0.7,0.7,2,0.7,2.7
		s-0.7,2.7-1.3,4.7c-0.7,2.7-1.3,5.4-2.7,8.1s-2.7,6-4.7,9.4s-4,6-6.7,8.7s-5.4,4.7-8.7,6.7c-3.4,2-7.4,2.7-11.4,2.7
		c-4.7,0-8.7-2-11.4-5.4s-4.7-7.4-5.4-12.8s-1.3-10.7-0.7-16.8c0.7-6,2-11.4,3.4-16.8c2-5.4,4-9.4,6.7-12.8c2.7-3.4,5.4-2.7,9.4-2.7
		c3.4,0,6,1.3,8.7,3.4c2.7,2.1,4.7,4.7,6,8.1c1.3,2.7,2,6,2.7,9.4C636.9,84.2,636.2,86.9,634.9,88.2z M622.1,70.1
		c-0.7,0.7-2,2-3.4,5.4c-1.3,3.4-2,6.7-3.4,11.4c1.3,0,2.7,0,4.7-0.7c1.3-0.7,2.7-1.3,3.4-2s0.7-2,1.3-3.4c0.7-1.3,0-3.4,0-4.7
		s-0.7-2.7-1.3-4C623.5,70.1,622.8,70.1,622.1,70.1z"/>
	<path fill="#111111" d="M652.3,90.9c0,1.3-0.7,2-2,2c-0.7,0.7-2,0.7-2.7,0.7s-2-0.7-2-1.3c-0.7-0.7-0.7-2,0-2.7l1.3-3.4
		c-1.3-1.3-2-2.7-2-4s0-3.4,0.7-4.7c0.7-1.3,1.3-2.7,2.7-3.4c1.3-1.3,2.7-1.3,4.7-1.3c2.7,0,4.7,1.3,4.7,3.4s0,4.7-1.3,7.4
		c0.7,0.7,2,0.7,4,0c2,0,3.4-0.7,5.4-0.7s2.7,0,4,0.7s1.3,2,0.7,4.7s-1.3,5.4-2,8.7c-0.7,3.4-1.3,6.7-1.3,9.4c0,3.4,0,5.4,0,8.1
		c0,2,1.3,3.4,2,3.4s2-1.3,3.4-3.4c1.3-2.7,2.7-5.4,4-8.1c1.3-3.4,2.7-6,3.4-9.4c1.3-3.4,2-5.4,2-7.4c0-1.3,0.7-2,2-2.7
		c0.7-0.7,2-0.7,2.7-0.7s2,0.7,2.7,1.3c0.7,0.7,0.7,2,0.7,3.4c0,0.7-0.7,2-1.3,4.7c-0.7,2.7-1.3,4.7-2,7.4c-0.7,2.7-2,6-3.4,8.7
		c-1.3,3.4-2.7,6-4.7,8.7s-4,4.7-6,6s-4.7,2-8.1,2s-5.4-1.3-7.4-4.7c-1.3-2.7-2.7-6-2.7-10.1c-0.7-4,0-8.1,0-12.1
		c0.7-4,1.3-8.1,2.7-11.4c-0.7,0-1.3,0-2,0s-1.3,0-2,0C653,89.6,652.3,90.2,652.3,90.9z"/>
</g>
<g>
	<path fill="#111111" d="M261.1,175.5c11.4,0,18.8,5.4,18.8,20.1s-7.4,20.1-18.8,20.1h-8.7c-1.3,0-2-0.7-2-2v-36.2c0-1.3,0.7-2,2-2
		H261.1z M254.4,212.4h6.7c8.7,0,14.8-4,14.8-16.8s-5.4-16.8-14.8-16.8h-6.7V212.4z"/>
	<path fill="#111111" d="M287.2,203.7v-26.8c0-1.3,0.7-2,2-2s2,0.7,2,2v26.8c0,4.7,2,9.4,10.1,9.4s10.1-4.7,10.1-9.4v-26.8
		c0-1.3,0.7-2,2-2s2,0.7,2,2v26.8c0,6.7-2.7,13.4-14.1,13.4C289.9,217.1,287.2,210.4,287.2,203.7z"/>
	<path fill="#111111" d="M326.8,215.7c-1.3,0-2-0.7-2-2v-36.2c0-1.3,0.7-2,2-2h10.1c8.7,0,12.1,4,12.1,10.7c0,4-2.7,7.4-6,8.1
		c4,1.3,8.1,4,8.1,10.1c0,6.7-4.7,11.4-12.1,11.4C338.9,215.7,326.8,215.7,326.8,215.7z M328.9,192.9h8.1c5.4,0,8.1-2.7,8.1-6.7
		s-2.7-6.7-8.1-6.7h-8.1V192.9z M328.9,212.4H339c5.4,0,8.1-2.7,8.1-8.1c0-4.7-3.4-8.1-8.1-8.1h-10.1V212.4z"/>
	<path fill="#111111" d="M379.2,211.7c1.3,0,2,0.7,2,2s-0.7,2-2,2h-18.8c-1.3,0-2-0.7-2-2v-36.9c0-1.3,0.7-2,2-2s2,0.7,2,2v34.9
		H379.2z"/>
	<path fill="#111111" d="M391.9,214.4c0,1.3-0.7,2-2,2s-2-0.7-2-2v-37.6c0-1.3,0.7-2,2-2s2,0.7,2,2V214.4z"/>
	<path fill="#111111" d="M430.2,176.8v37.6c0,1.3-0.7,2-2,2c-0.7,0-1.3,0-2-0.7l-21.5-32.2v30.9c0,1.3-0.7,2-2,2s-2-0.7-2-2v-37.6
		c0-1.3,0.7-2,2-2c0.7,0,1.3,0.7,1.3,0.7l21.5,32.2v-30.9c0-1.3,0.7-2,2-2S430.2,175.5,430.2,176.8z"/>
</g>
<!-- <g>
	<circle fill="none" stroke="#ED0DFF" stroke-width="3" stroke-miterlimit="10" cx="367" cy="93.4" r="15.9"/>
	<line fill="none" stroke="#ED0DFF" stroke-width="3" stroke-miterlimit="10" x1="366.8" y1="74" x2="366.8" y2="80.8"/>
	<line fill="none" stroke="#ED0DFF" stroke-width="3" stroke-miterlimit="10" x1="366.9" y1="105.7" x2="366.9" y2="112.4"/>
	<line fill="none" stroke="#ED0DFF" stroke-width="3" stroke-miterlimit="10" x1="386.5" y1="93.3" x2="379.7" y2="93.3"/>
	<line fill="none" stroke="#ED0DFF" stroke-width="3" stroke-miterlimit="10" x1="354.8" y1="93.5" x2="348.1" y2="93.5"/>
</g> -->
</svg>
