<?xml version="1.0" encoding="iso-8859-1"?>
<!-- Generator: Adobe Illustrator 16.0.0, SVG Export Plug-In . SVG Version: 6.00 Build 0)  -->
<!DOCTYPE svg PUBLIC "-//W3C//DTD SVG 1.1//EN" "http://www.w3.org/Graphics/SVG/1.1/DTD/svg11.dtd">
<svg version="1.1" id="Capa_1" xmlns="http://www.w3.org/2000/svg" xmlns:xlink="http://www.w3.org/1999/xlink" x="0px" y="0px"
	 width="123.377px" height="123.377px" viewBox="0 0 123.377 123.377" style="enable-background:new 0 0 123.377 123.377;"
	 xml:space="preserve">
<g>
	<g>
		<path d="M39.102,33.542c1.943,0,3.522-1.58,3.522-3.522s-1.579-3.522-3.522-3.522c-1.942,0-3.522,1.58-3.522,3.522
			S37.16,33.542,39.102,33.542z"/>
		<path d="M17.067,45.735c0.55,2.73,3.161,4.869,5.946,4.869h0.989c2.098,4.948,5.617,9.44,10.281,13.113v17.984l3.964,0.002
			c7.117,0,15.976,0,15.976-8.699v-0.57c6.931,1.238,14.105,1.008,20.89-0.671V73c0,8.703,8.859,8.703,15.979,8.703l3.965-0.002
			V60.972c6.082-6.002,9.42-13.529,9.42-21.297c0-3.74-0.761-7.366-2.248-10.862c1.596-0.696,3.809-0.882,4.877-0.525
			c0.424,0.14,0.812,0.328,1.162,0.561c-1.4,1.051-2.412,2.463-2.658,3.781c-0.17,0.92-0.217,3.177,3.066,4.225
			c0.413,0.132,0.809,0.199,1.174,0.199c1.187,0,2.098-0.668,2.494-1.888c0.521-1.597,0.016-4.085-1.461-5.995
			c0.74-0.286,1.528-0.436,2.299-0.391c1.571,0.093,2.584,1.17,3.01,2.145c0.474,1.097,0.356,2.244-0.321,3.063
			c-0.274,0.333-0.229,0.827,0.106,1.102c0.328,0.277,0.826,0.229,1.101-0.105c1.046-1.269,1.257-3.062,0.551-4.687
			c-0.782-1.784-2.444-2.968-4.351-3.08c-1.231-0.088-2.469,0.222-3.566,0.75c-0.605-0.493-1.316-0.902-2.115-1.164
			c-1.394-0.462-3.99-0.287-6.002,0.597c-0.574-1.176-1.226-2.338-1.972-3.482l-0.968-1.364
			c-4.043-5.517-10.004-9.973-17.289-12.909c-0.381-0.142-9.402-3.481-18.581-3.481c-0.777,0-1.547,0.025-2.282,0.073
			c-6.289,0.414-8.55,0.915-11.853,1.982C45.104,5.034,38.12,2.776,33.381,2.776c-2.566,0-4.445,0.632-5.586,1.88
			c-0.838,0.916-1.219,2.091-1.102,3.402c0.292,3.282,1.921,4.987,3.11,6.231c1.154,1.207,1.789,1.872,1.578,3.874
			c-3.508,3.403-6.168,7.379-7.781,11.626l-3.766-0.554c-1.732-0.256-3.197,0.306-4.156,1.475c-0.837,1.02-1.141,2.368-0.855,3.8
			L17.067,45.735z M109.542,30.122c3.373,5.719,0,5.217,0,5.217C104.182,34.357,109.542,30.122,109.542,30.122z M26.706,34.785
			l0.563-1.851c1.339-4.413,4.02-8.574,7.751-12.034l0.556-0.516l0.13-0.748c0.83-4.801-1.184-6.91-2.654-8.45
			c-0.993-1.039-2.295-2.827-1.881-3.548c0.201-0.349,1.096-0.374,2.211-0.374c4.4,0,11.006,2.52,12.848,4.904l0.976,1.261
			l1.512-0.505c3.616-1.208,5.268-1.759,12.079-2.208c0.64-0.042,1.309-0.063,1.988-0.063c8.347,0,16.923,3.165,16.953,3.176
			c6.457,2.602,11.746,6.537,15.275,11.351l0.896,1.263c2.707,4.147,4.078,8.599,4.078,13.231c0,6.81-3.094,13.451-8.711,18.702
			l-0.711,0.665v18.172c-8.795-0.031-10.963-0.892-10.963-4.211v-7.254l-2.916,0.914c-7.771,2.435-16.218,2.721-24.189,0.83
			l-2.763-0.656v6.168c0,3.318-2.168,4.178-10.961,4.209V61.478l-0.907-0.673c-4.879-3.62-8.413-8.187-10.221-13.207l-0.535-1.484
			h-4.097c-0.651,0-1.415-0.626-1.543-1.262l-2.233-11.167L26.706,34.785z"/>
		<path d="M56.646,24.017c0.637-0.269,15.723-6.476,25.93,4.519c0.531,0.571,1.251,0.86,1.975,0.86c0.656,0,1.314-0.238,1.833-0.72
			c1.091-1.012,1.153-2.716,0.142-3.807c-12.817-13.803-31.219-6.138-31.995-5.806c-1.365,0.585-1.997,2.164-1.415,3.53
			C53.696,23.96,55.278,24.596,56.646,24.017z"/>
		<path d="M120.055,89.106h0.857h2.464v-5.2h-3.321H70.791h-60.39C4.666,83.906,0,88.573,0,94.308v15.891
			c0,5.735,4.666,10.402,10.401,10.402h60.39h49.266h3.32v-5.2h-2.494h-0.826c-2.869,0-5.203-2.333-5.203-5.202V94.308
			C114.852,91.439,117.186,89.106,120.055,89.106z M11.23,115.401h-0.829c-2.867,0-5.201-2.333-5.201-5.202V94.308
			c0-2.869,2.334-5.202,5.201-5.202h0.859c-0.905,1.541-1.434,3.328-1.434,5.24v15.867C9.827,112.103,10.343,113.872,11.23,115.401z
			 M51.176,115.401H20.128c-2.823-0.045-5.107-2.354-5.107-5.188V94.346c0-2.436,1.834-5.24,4.446-5.24c2.094,0,31.74,0,31.74,0
			c-0.906,1.541-1.435,3.328-1.435,5.24v15.867C49.773,112.103,50.29,113.872,51.176,115.401z M61.783,115.401h-1.708
			c-2.823-0.045-5.11-2.354-5.11-5.188V94.346c0-2.436,1.396-5.24,3.951-5.24h2.867c-0.887,1.531-1.396,3.309-1.396,5.202v15.891
			C60.387,112.093,60.896,113.87,61.783,115.401z M109.652,98.353v7.368H82.781v4.334h26.871v0.144c0,1.896,0.519,3.669,1.406,5.202
			H70.791c-2.869,0-5.203-2.333-5.203-5.202v-5.077V99.92v-5.612c0-2.869,2.334-5.202,5.203-5.202h40.27
			c-0.845,1.453-1.338,3.127-1.388,4.913H82.782v4.334H109.652z"/>
		<rect x="17.842" y="98.499" width="29.688" height="7.15"/>
	</g>
</g>
<g>
</g>
<g>
</g>
<g>
</g>
<g>
</g>
<g>
</g>
<g>
</g>
<g>
</g>
<g>
</g>
<g>
</g>
<g>
</g>
<g>
</g>
<g>
</g>
<g>
</g>
<g>
</g>
<g>
</g>
</svg>
